# 3ds Max Wavefront OBJ Exporter v0.97b - (c)2007 guruware
# File Created: 11.09.2017 09:19:18

mtllib cactus-3d.mtl

#
# shape Layer_0
#

v  -10.9283 0.0000 11.5368
v  -9.0448 0.0000 8.5669
v  -10.7705 0.0000 13.3773
v  -7.6089 0.0000 8.3920
v  -9.0384 0.0000 12.7354
v  -7.1549 0.0000 9.7655
v  -7.6571 0.0000 -24.6901
v  -5.7736 0.0000 -27.6600
v  -7.4994 0.0000 -22.8496
v  -4.3377 0.0000 -27.8348
v  -5.7673 0.0000 -23.4915
v  -3.8837 0.0000 -26.4614
v  13.9119 0.0000 -8.3273
v  15.7954 0.0000 -11.2972
v  14.0697 0.0000 -6.4868
v  17.2313 0.0000 -11.4720
v  15.8018 0.0000 -7.1287
v  17.6853 0.0000 -10.0986
# 18 vertices

o Layer_0
g Layer_0
usemtl wire_088144225
l 1 2
l 3 4
l 5 6
l 7 8
l 9 10
l 11 12
l 13 14
l 15 16
l 17 18

#
# object Layer_Vertical_Frame_2_Jamb_2_ESEL104
#

v  26.9800 0.0000 -34.1007
v  24.8346 0.0000 -34.1007
v  24.8560 2.0000 -34.1007
v  26.9800 2.0000 -34.1007
v  26.9800 0.0000 35.0328
v  26.9800 2.0000 35.0328
v  24.8346 0.0000 35.0328
v  24.8560 2.0000 35.0328
v  24.7000 0.0000 -34.1007
v  24.7306 1.7000 -34.1007
v  24.7612 1.7000 35.0328
v  24.7000 0.0000 35.0328
# 12 vertices

vn 0.5774 -0.5774 -0.5774
vn -0.0081 -0.4293 -0.9031
vn -0.5740 0.5801 -0.5779
vn 0.5774 0.5774 -0.5774
vn 0.5773 -0.5774 0.5774
vn 0.5774 0.5774 0.5774
vn -0.3368 -0.6696 0.6620
vn -0.5740 0.5801 0.5779
vn -0.5830 -0.5726 -0.5764
vn -0.0229 0.8432 -0.5371
vn 0.9991 0.0431 -0.0000
vn -0.0030 0.8423 0.5391
vn -0.5886 -0.5678 0.5755
vn 0.0000 -1.0000 -0.0000
# 14 vertex normals

vt 0.0000 0.0000 0.0000
vt 1.0000 0.0000 0.0000
vt 1.0000 1.0000 0.0000
vt 0.0000 1.0000 0.0000
# 4 texture coords

o Layer_Vertical_Frame_2_Jamb_2_ESEL104
g Layer_Vertical_Frame_2_Jamb_2_ESEL104
usemtl wire_220220220
s 1
f 19/1/1 20/2/2 21/3/3 22/4/4 
s 2
f 23/1/5 19/2/1 22/3/4 24/4/6 
s 1
f 25/1/7 23/2/5 24/3/6 26/4/8 
s 2
f 20/1/2 25/2/7 26/3/8 21/4/3 
s 4
f 20/3/2 19/4/1 23/1/5 25/2/7 
f 26/1/8 24/2/6 22/3/4 21/4/3 
s 8
f 20/1/2 27/2/9 28/4/10 
s 16
f 25/1/11 20/2/11 29/4/12 
f 29/4/12 20/2/2 28/3/10 
s 8
f 30/1/13 25/2/7 29/4/12 
s 1
f 27/1/9 30/2/13 29/3/12 28/4/10 
s 32
f 30/2/13 27/3/9 25/1/7 
f 25/1/14 27/3/9 20/4/14 
# 7 polygons - 6 triangles

#
# object Layer_Vertical_Frame_1_Jamb_1_ESEL104
#

v  -18.8753 0.0000 35.0328
v  -18.8745 0.0000 -34.1007
v  -18.8960 2.0000 -34.1007
v  -18.8960 2.0000 35.0328
v  -21.0200 0.0000 35.0328
v  -21.0200 2.0000 35.0328
v  -21.0200 0.0000 -34.1007
v  -21.0200 2.0000 -34.1007
v  -18.7397 0.0000 35.0328
v  -18.7401 0.0000 -34.1007
v  -18.7706 1.7000 -34.1007
v  -18.7711 1.7000 35.0328
# 12 vertices

vn 0.0082 -0.4295 0.9031
vn 0.3376 -0.6713 -0.6599
vn 0.5740 0.5801 -0.5779
vn 0.5740 0.5801 0.5779
vn -0.5774 -0.5774 0.5774
vn -0.5774 0.5774 0.5774
vn -0.5774 -0.5774 -0.5774
vn -0.5774 0.5774 -0.5774
vn 0.5831 -0.5725 0.5764
vn 0.5830 -0.5726 -0.5764
vn 0.0182 0.8433 -0.5371
vn 0.0180 0.8433 0.5371
vn -0.9981 0.0610 -0.0000
vn 0.0000 -1.0000 -0.0000
# 14 vertex normals

vt 0.0000 0.0000 0.0000
vt 1.0000 0.0000 0.0000
vt 1.0000 1.0000 0.0000
vt 0.0000 1.0000 0.0000
vt 0.0000 0.0000 0.0004
vt 0.0000 1.0000 0.0004
vt 0.0000 0.0000 0.0022
vt 0.0000 1.0000 0.0022
vt 0.0038 1.0000 0.0000
vt 0.9763 1.0000 0.0000
# 10 texture coords

o Layer_Vertical_Frame_1_Jamb_1_ESEL104
g Layer_Vertical_Frame_1_Jamb_1_ESEL104
usemtl wire_255255255
s 1
f 31/5/15 32/6/16 33/7/17 34/8/18 
s 2
f 35/5/19 31/6/15 34/7/18 36/8/20 
s 1
f 37/5/21 35/6/19 36/7/20 38/8/22 
s 2
f 32/5/16 37/6/21 38/7/22 33/8/17 
s 4
f 33/7/17 38/8/22 36/5/20 34/6/18 
f 37/7/21 32/8/16 31/5/15 35/6/19 
s 1
f 39/9/23 40/6/24 41/7/25 42/10/26 
s 8
f 31/5/15 39/6/23 42/8/26 
s 16
f 32/11/27 31/6/27 41/12/25 
f 41/12/25 31/6/15 42/7/26 
s 8
f 40/5/24 32/6/16 41/8/25 
s 32
f 40/13/24 39/5/23 32/14/16 
f 32/14/28 39/5/23 31/6/28 
# 7 polygons - 6 triangles

#
# object Layer_Horizontal_Frame_2_Sill_ESEL102
#

v  26.9800 0.0000 36.0018
v  26.9800 0.0000 35.0328
v  26.9800 2.0000 35.0328
v  26.9800 2.0000 36.0018
v  -21.0200 0.0000 36.0018
v  -21.0200 2.0000 36.0018
v  -21.0200 0.0000 35.0328
v  -21.0200 2.0000 35.0328
# 8 vertices

vn 0.5774 -0.5774 0.5774
vn 0.5774 -0.5774 -0.5774
vn 0.5774 0.5774 -0.5774
vn 0.5774 0.5774 0.5774
vn -0.5774 -0.5774 0.5774
vn -0.5774 0.5774 0.5774
vn -0.5774 -0.5774 -0.5774
vn -0.5774 0.5774 -0.5774
# 8 vertex normals

vt 0.0000 0.0000 0.0000
vt 1.0000 0.0000 0.0000
vt 1.0000 1.0000 0.0000
vt 0.0000 1.0000 0.0000
# 4 texture coords

o Layer_Horizontal_Frame_2_Sill_ESEL102
g Layer_Horizontal_Frame_2_Sill_ESEL102
usemtl wire_220220220
s 1
f 43/15/29 44/16/30 45/17/31 46/18/32 
s 2
f 47/15/33 43/16/29 46/17/32 48/18/34 
s 1
f 49/15/35 47/16/33 48/17/34 50/18/36 
s 2
f 44/15/30 49/16/35 50/17/36 45/18/31 
s 4
f 49/17/35 44/18/30 43/15/29 47/16/33 
f 45/17/31 50/18/36 48/15/34 46/16/32 
# 6 polygons

#
# object Layer_Horizontal_A_1_Glazing_Bead_Fixed__1_ESEL110
#

v  24.7000 0.0000 -33.3819
v  24.7000 0.0000 -34.1007
v  24.7000 2.0000 -34.1007
v  24.7000 2.0000 -33.3819
v  -18.7401 0.0000 -33.3819
v  -18.7401 2.0000 -33.3819
v  -18.7401 0.0000 -34.1007
v  -18.7401 2.0000 -34.1007
# 8 vertices

vn 0.5774 -0.5774 0.5774
vn 0.5774 -0.5774 -0.5774
vn 0.5774 0.5774 -0.5774
vn 0.5774 0.5774 0.5774
vn -0.5774 -0.5774 0.5774
vn -0.5774 0.5774 0.5774
vn -0.5774 -0.5774 -0.5774
vn -0.5774 0.5774 -0.5774
# 8 vertex normals

vt 0.0000 0.0000 0.0000
vt 1.0000 0.0000 0.0000
vt 1.0000 1.0000 0.0000
vt 0.0000 1.0000 0.0000
# 4 texture coords

o Layer_Horizontal_A_1_Glazing_Bead_Fixed__1_ESEL110
g Layer_Horizontal_A_1_Glazing_Bead_Fixed__1_ESEL110
usemtl wire_220220220
s 1
f 51/19/37 52/20/38 53/21/39 54/22/40 
s 2
f 55/19/41 51/20/37 54/21/40 56/22/42 
s 1
f 57/19/43 55/20/41 56/21/42 58/22/44 
s 2
f 52/19/38 57/20/43 58/21/44 53/22/39 
s 4
f 53/21/39 58/22/44 56/19/42 54/20/40 
f 57/21/43 52/22/38 51/19/37 55/20/41 
# 6 polygons

#
# object Layer_Horizontal_B_3_Bottom_Rail_ESEL106
#

v  -18.7397 0.0000 34.3138
v  -18.7398 0.0000 35.0328
v  -18.7398 1.5000 35.0328
v  -18.7396 1.5000 34.3138
v  24.7001 0.0000 34.3138
v  24.7002 1.5000 34.3138
v  24.6999 0.0000 35.0328
v  24.6999 1.5000 35.0328
v  24.7001 0.0000 33.3531
v  24.7001 1.4000 33.3531
v  24.7001 1.4000 34.3138
v  -18.7399 1.4000 34.3138
v  -18.7399 0.0000 33.3531
v  -18.7399 1.4000 33.3531
# 14 vertices

vn -0.6687 -0.6641 -0.3343
vn -0.5774 -0.5774 0.5773
vn -0.5774 0.5774 0.5773
vn -0.5773 0.5773 -0.5774
vn 0.8945 -0.4471 -0.0091
vn 0.5775 0.5773 -0.5773
vn 0.5772 -0.5774 0.5775
vn 0.5772 0.5774 0.5774
vn 0.5773 -0.5774 -0.5774
vn 0.5773 0.5773 -0.5774
vn 0.5773 0.5774 0.5773
vn 0.0000 0.0000 1.0000
vn -0.5774 0.5773 0.5773
vn -0.5774 -0.5774 -0.5773
vn -0.5774 0.5774 -0.5774
vn 0.0000 -1.0000 -0.0000
# 16 vertex normals

vt 0.0000 0.0000 0.0001
vt 1.0000 0.0000 0.0000
vt 1.0000 1.0000 0.0000
vt 0.0000 1.0000 0.0001
vt -0.0000 0.0000 0.0000
vt -0.0000 1.0000 0.0000
vt 0.0000 0.0000 0.0000
vt 1.0000 0.0000 0.0003
vt 1.0000 1.0000 0.0003
vt 0.0000 1.0000 0.0000
# 10 texture coords

o Layer_Horizontal_B_3_Bottom_Rail_ESEL106
g Layer_Horizontal_B_3_Bottom_Rail_ESEL106
usemtl wire_220220220
s 1
f 59/23/45 60/24/46 61/25/47 62/26/48 
s 2
f 63/27/49 59/24/45 62/25/48 64/28/50 
s 1
f 65/29/51 63/30/49 64/31/50 66/32/52 
s 2
f 60/29/46 65/24/51 66/25/52 61/32/47 
s 4
f 60/24/46 59/25/45 63/32/49 65/29/51 
f 61/29/47 66/24/52 64/25/50 62/32/48 
s 8
f 63/29/49 67/24/53 68/25/54 69/32/55 
s 16
f 59/29/56 63/24/56 70/32/57 
f 70/32/57 63/24/49 69/25/55 
s 8
f 71/29/58 59/24/45 70/25/57 72/32/59 
s 1
f 67/29/53 71/24/58 72/25/59 68/32/54 
s 2
f 72/32/59 70/29/57 69/24/55 68/25/54 
s 32
f 71/25/58 67/32/53 59/24/45 
f 59/24/60 67/32/53 63/27/60 
# 10 polygons - 4 triangles

#
# object Layer_Horizontal_Rail_1_Fixed_Meeting_Rail_ESEL108A
#

v  24.6995 -0.0007 1.4507
v  24.6995 -0.0007 0.2007
v  24.6995 1.2993 0.2007
v  24.6995 1.2993 1.4507
v  -18.7401 -0.0007 1.4507
v  -18.7401 1.2993 1.4507
v  -18.7401 -0.0007 0.2007
v  -18.7401 1.2993 0.2007
# 8 vertices

vn 0.5774 -0.5774 0.5773
vn 0.5773 -0.5773 -0.5774
vn 0.5773 0.5773 -0.5774
vn 0.5774 0.5774 0.5773
vn -0.5774 -0.5774 0.5774
vn -0.5774 0.5774 0.5774
vn -0.5774 -0.5774 -0.5774
vn -0.5774 0.5774 -0.5774
# 8 vertex normals

vt 0.0000 0.0000 0.0000
vt 1.0000 0.0000 0.0000
vt 1.0000 1.0000 0.0000
vt 0.0000 1.0000 0.0000
# 4 texture coords

o Layer_Horizontal_Rail_1_Fixed_Meeting_Rail_ESEL108A
g Layer_Horizontal_Rail_1_Fixed_Meeting_Rail_ESEL108A
usemtl wire_255255255
s 1
f 73/33/61 74/34/62 75/35/63 76/36/64 
s 2
f 77/33/65 73/34/61 76/35/64 78/36/66 
s 1
f 79/33/67 77/34/65 78/35/66 80/36/68 
s 2
f 74/33/62 79/34/67 80/35/68 75/36/63 
s 4
f 80/36/68 78/33/66 76/34/64 75/35/63 
f 79/35/67 74/36/62 73/33/61 77/34/65 
# 6 polygons

#
# object Layer_Horizontal_Frame_1_Head_ESEL101A
#

v  26.9800 0.0000 -34.1007
v  26.9800 0.0000 -35.0697
v  26.9800 2.0000 -35.0697
v  26.9800 2.0000 -34.1007
v  -21.0200 0.0000 -34.1007
v  -21.0200 2.0000 -34.1007
v  -21.0200 0.0000 -35.0697
v  -21.0200 2.0000 -35.0697
# 8 vertices

vn 0.5774 -0.5774 0.5774
vn 0.5774 -0.5774 -0.5774
vn 0.5774 0.5774 -0.5774
vn 0.5774 0.5774 0.5774
vn -0.5774 -0.5774 0.5774
vn -0.5774 0.5774 0.5774
vn -0.5774 -0.5774 -0.5774
vn -0.5774 0.5774 -0.5774
# 8 vertex normals

vt 0.0000 0.0000 0.0000
vt 1.0000 0.0000 0.0000
vt 1.0000 1.0000 0.0000
vt 0.0000 1.0000 0.0000
# 4 texture coords

o Layer_Horizontal_Frame_1_Head_ESEL101A
g Layer_Horizontal_Frame_1_Head_ESEL101A
usemtl wire_220220220
s 1
f 81/37/69 82/38/70 83/39/71 84/40/72 
s 2
f 85/37/73 81/38/69 84/39/72 86/40/74 
s 1
f 87/37/75 85/38/73 86/39/74 88/40/76 
s 2
f 82/37/70 87/38/75 88/39/76 83/40/71 
s 4
f 87/39/75 82/40/70 81/37/69 85/38/73 
f 83/39/71 88/40/76 86/37/74 84/38/72 
# 6 polygons

#
# object Layer_Horizontal_A_2_Glazing_Bead_Fixed_2_ESEL110
#

v  24.6999 -0.0007 0.2007
v  24.6999 -0.0007 -0.5181
v  24.6999 1.9993 -0.5181
v  24.6999 1.9993 0.2007
v  -18.7401 -0.0007 0.2007
v  -18.7401 1.9993 0.2007
v  -18.7401 -0.0007 -0.5181
v  -18.7401 1.9993 -0.5181
# 8 vertices

vn 0.5774 -0.5774 0.5774
vn 0.5774 -0.5774 -0.5774
vn 0.5774 0.5774 -0.5774
vn 0.5774 0.5774 0.5774
vn -0.5774 -0.5774 0.5774
vn -0.5774 0.5774 0.5774
vn -0.5774 -0.5774 -0.5774
vn -0.5774 0.5774 -0.5774
# 8 vertex normals

vt 0.0000 0.0000 0.0000
vt 1.0000 0.0000 0.0000
vt 1.0000 1.0000 0.0000
vt 0.0000 1.0000 0.0000
# 4 texture coords

o Layer_Horizontal_A_2_Glazing_Bead_Fixed_2_ESEL110
g Layer_Horizontal_A_2_Glazing_Bead_Fixed_2_ESEL110
usemtl wire_220220220
s 1
f 89/41/77 90/42/78 91/43/79 92/44/80 
s 2
f 93/41/81 89/42/77 92/43/80 94/44/82 
s 1
f 95/41/83 93/42/81 94/43/82 96/44/84 
s 2
f 90/41/78 95/42/83 96/43/84 91/44/79 
s 4
f 91/43/79 96/44/84 94/41/82 92/42/80 
f 95/43/83 90/44/78 89/41/77 93/42/81 
# 6 polygons

#
# object Layer_Vertical_A_1_Glazing_Bead_Fixed_1_ESEL110
#

v  -18.7400 0.0000 -0.5161
v  -18.0212 0.0000 -0.5161
v  -18.0212 2.0000 -0.5161
v  -18.7400 2.0000 -0.5161
v  -18.7400 0.0000 -33.3831
v  -18.7400 2.0000 -33.3831
v  -18.0212 0.0000 -33.3831
v  -18.0212 2.0000 -33.3831
# 8 vertices

vn -0.5774 -0.5774 0.5774
vn 0.5774 -0.5774 0.5774
vn 0.5774 0.5774 0.5774
vn -0.5774 0.5774 0.5774
vn -0.5774 -0.5774 -0.5774
vn -0.5774 0.5774 -0.5774
vn 0.5774 -0.5774 -0.5774
vn 0.5774 0.5774 -0.5774
# 8 vertex normals

vt 0.0000 0.0000 0.0000
vt 1.0000 0.0000 0.0000
vt 1.0000 1.0000 0.0000
vt 0.0000 1.0000 0.0000
vt -0.0000 1.0000 0.0000
vt -0.0000 0.0000 0.0000
# 6 texture coords

o Layer_Vertical_A_1_Glazing_Bead_Fixed_1_ESEL110
g Layer_Vertical_A_1_Glazing_Bead_Fixed_1_ESEL110
usemtl wire_220220220
s 1
f 97/45/85 98/46/86 99/47/87 100/48/88 
s 2
f 101/45/89 97/46/85 100/47/88 102/48/90 
s 1
f 103/45/91 101/46/89 102/47/90 104/48/92 
s 2
f 98/45/86 103/46/91 104/47/92 99/48/87 
s 4
f 99/46/87 104/47/92 102/48/90 100/45/88 
f 103/49/91 98/50/86 97/46/85 101/47/89 
# 6 polygons

#
# object Layer_Vertical_A_2_Glazing_Bead_Fixed_2_ESEL110
#

v  23.9811 -0.0007 -0.5181
v  24.6999 -0.0007 -0.5181
v  24.6999 1.9993 -0.5181
v  23.9811 1.9993 -0.5181
v  23.9811 -0.0007 -33.3818
v  23.9811 1.9993 -33.3818
v  24.6999 -0.0007 -33.3818
v  24.6999 1.9993 -33.3818
# 8 vertices

vn -0.5774 -0.5774 0.5774
vn 0.5774 -0.5774 0.5774
vn 0.5774 0.5774 0.5774
vn -0.5774 0.5774 0.5774
vn -0.5774 -0.5774 -0.5774
vn -0.5774 0.5774 -0.5774
vn 0.5774 -0.5774 -0.5774
vn 0.5774 0.5774 -0.5774
# 8 vertex normals

vt 0.0000 0.0000 0.0000
vt 1.0000 0.0000 0.0000
vt 1.0000 1.0000 0.0000
vt 0.0000 1.0000 0.0000
# 4 texture coords

o Layer_Vertical_A_2_Glazing_Bead_Fixed_2_ESEL110
g Layer_Vertical_A_2_Glazing_Bead_Fixed_2_ESEL110
usemtl wire_220220220
s 1
f 105/51/93 106/52/94 107/53/95 108/54/96 
s 2
f 109/51/97 105/52/93 108/53/96 110/54/98 
s 1
f 111/51/99 109/52/97 110/53/98 112/54/100 
s 2
f 106/51/94 111/52/99 112/53/100 107/54/95 
s 4
f 107/52/95 112/53/100 110/54/98 108/51/96 
f 111/54/99 106/51/94 105/52/93 109/53/97 
# 6 polygons

#
# object Layer_Horizontal_B_1_Glazing_Bead_Vent_1_ESEL110
#

v  24.6999 -0.0007 2.1694
v  24.6999 -0.0007 1.4507
v  24.6999 1.9993 1.4507
v  24.6999 1.9993 2.1694
v  -18.7401 -0.0007 2.1694
v  -18.7401 1.9993 2.1694
v  -18.7401 -0.0007 1.4507
v  -18.7401 1.9993 1.4507
# 8 vertices

vn 0.5774 -0.5774 0.5774
vn 0.5774 -0.5774 -0.5774
vn 0.5774 0.5774 -0.5774
vn 0.5774 0.5774 0.5774
vn -0.5774 -0.5774 0.5774
vn -0.5774 0.5774 0.5774
vn -0.5774 -0.5774 -0.5774
vn -0.5774 0.5774 -0.5774
# 8 vertex normals

vt 0.0000 0.0000 0.0000
vt 1.0000 0.0000 0.0000
vt 1.0000 1.0000 0.0000
vt 0.0000 1.0000 0.0000
# 4 texture coords

o Layer_Horizontal_B_1_Glazing_Bead_Vent_1_ESEL110
g Layer_Horizontal_B_1_Glazing_Bead_Vent_1_ESEL110
usemtl wire_220220220
s 1
f 113/55/101 114/56/102 115/57/103 116/58/104 
s 2
f 117/55/105 113/56/101 116/57/104 118/58/106 
s 1
f 119/55/107 117/56/105 118/57/106 120/58/108 
s 2
f 114/55/102 119/56/107 120/57/108 115/58/103 
s 4
f 115/57/103 120/58/108 118/55/106 116/56/104 
f 119/57/107 114/58/102 113/55/101 117/56/105 
# 6 polygons

#
# object Layer_Vertical_B_2_Glazing_Bead_Vent_2_ESEL110
#

v  23.9811 -0.0007 32.6346
v  24.6999 -0.0007 32.6346
v  24.6999 1.9993 32.6346
v  23.9811 1.9993 32.6346
v  23.9811 -0.0007 2.1694
v  23.9811 1.9993 2.1694
v  24.6999 -0.0007 2.1694
v  24.6999 1.9993 2.1694
# 8 vertices

vn -0.5774 -0.5774 0.5774
vn 0.5774 -0.5774 0.5774
vn 0.5774 0.5774 0.5774
vn -0.5774 0.5774 0.5774
vn -0.5774 -0.5774 -0.5774
vn -0.5774 0.5774 -0.5774
vn 0.5774 -0.5774 -0.5774
vn 0.5774 0.5774 -0.5774
# 8 vertex normals

vt 0.0000 0.0000 0.0000
vt 1.0000 0.0000 0.0000
vt 1.0000 1.0000 0.0000
vt 0.0000 1.0000 0.0000
# 4 texture coords

o Layer_Vertical_B_2_Glazing_Bead_Vent_2_ESEL110
g Layer_Vertical_B_2_Glazing_Bead_Vent_2_ESEL110
usemtl wire_220220220
s 1
f 121/59/109 122/60/110 123/61/111 124/62/112 
s 2
f 125/59/113 121/60/109 124/61/112 126/62/114 
s 1
f 127/59/115 125/60/113 126/61/114 128/62/116 
s 2
f 122/59/110 127/60/115 128/61/116 123/62/111 
s 4
f 123/60/111 128/61/116 126/62/114 124/59/112 
f 127/62/115 122/59/110 121/60/109 125/61/113 
# 6 polygons

#
# object Layer_Vertical_B_1_Glazing_Bead_Vent_1_ESEL110
#

v  -18.7400 0.0000 32.6327
v  -18.0212 0.0000 32.6327
v  -18.0212 2.0000 32.6327
v  -18.7400 2.0000 32.6327
v  -18.7400 0.0000 2.1680
v  -18.7400 2.0000 2.1680
v  -18.0212 0.0000 2.1680
v  -18.0212 2.0000 2.1680
# 8 vertices

vn -0.5774 -0.5774 0.5774
vn 0.5774 -0.5774 0.5774
vn 0.5774 0.5774 0.5774
vn -0.5774 0.5774 0.5774
vn -0.5774 -0.5774 -0.5774
vn -0.5774 0.5774 -0.5774
vn 0.5774 -0.5774 -0.5774
vn 0.5774 0.5774 -0.5774
# 8 vertex normals

vt 0.0000 0.0000 0.0000
vt 1.0000 0.0000 0.0000
vt 1.0000 1.0000 0.0000
vt 0.0000 1.0000 0.0000
# 4 texture coords

o Layer_Vertical_B_1_Glazing_Bead_Vent_1_ESEL110
g Layer_Vertical_B_1_Glazing_Bead_Vent_1_ESEL110
usemtl wire_220220220
s 1
f 129/63/117 130/64/118 131/65/119 132/66/120 
s 2
f 133/63/121 129/64/117 132/65/120 134/66/122 
s 1
f 135/63/123 133/64/121 134/65/122 136/66/124 
s 2
f 130/63/118 135/64/123 136/65/124 131/66/119 
s 4
f 131/64/119 136/65/124 134/66/122 132/63/120 
f 135/66/123 130/63/118 129/64/117 133/65/121 
# 6 polygons

#
# object Layer_Horizontal_B_2_Glazing_Bead_Vent_2_ESEL110
#

v  24.7000 0.0000 33.3531
v  24.7000 0.0000 32.6343
v  24.7000 2.0000 32.6343
v  24.7000 2.0000 33.3531
v  -18.7400 0.0000 33.3531
v  -18.7400 2.0000 33.3531
v  -18.7400 0.0000 32.6343
v  -18.7400 2.0000 32.6343
# 8 vertices

vn 0.5774 -0.5774 0.5774
vn 0.5774 -0.5774 -0.5774
vn 0.5774 0.5774 -0.5774
vn 0.5774 0.5774 0.5774
vn -0.5774 -0.5774 0.5774
vn -0.5774 0.5774 0.5774
vn -0.5774 -0.5774 -0.5774
vn -0.5774 0.5774 -0.5774
# 8 vertex normals

vt 0.0000 0.0000 0.0000
vt 1.0000 0.0000 0.0000
vt 1.0000 1.0000 0.0000
vt 0.0000 1.0000 0.0000
# 4 texture coords

o Layer_Horizontal_B_2_Glazing_Bead_Vent_2_ESEL110
g Layer_Horizontal_B_2_Glazing_Bead_Vent_2_ESEL110
usemtl wire_220220220
s 1
f 137/67/125 138/68/126 139/69/127 140/70/128 
s 2
f 141/67/129 137/68/125 140/69/128 142/70/130 
s 1
f 143/67/131 141/68/129 142/69/130 144/70/132 
s 2
f 138/67/126 143/68/131 144/69/132 139/70/127 
s 4
f 139/69/127 144/70/132 142/67/130 140/68/128 
f 143/69/131 138/70/126 137/67/125 141/68/129 
# 6 polygons

