# Blender v2.78 (sub 0) OBJ File: ''
# www.blender.org
mtllib untitled.mtl
o BL|A$C5A942B67_curve_
v 0.222397 0.000000 -0.921804
v 0.222397 0.000000 -70.055321
v 2.346397 0.000000 -70.055321
v 2.346397 0.000000 -0.921804
v 0.222397 0.000000 -0.921804
v 0.222397 0.000000 0.047195
v 48.222397 0.000000 0.047195
v 48.222397 0.000000 -0.921804
v 48.222397 0.000000 -70.055321
v 46.098396 0.000000 -70.055321
v 46.098396 0.000000 -0.921804
v 48.222397 0.000000 -0.921804
v 0.222397 0.000000 -0.921804
v 2.502594 0.000000 -0.921804
v 2.502649 0.000000 -1.270262
v 2.502710 0.000000 -1.640804
v 45.942398 0.000000 -1.640804
v 45.942524 0.000000 -1.640804
v 45.942398 0.000000 -1.281813
v 45.942268 0.000000 -0.921804
v 3.221169 0.000000 -33.785194
v 2.502398 0.000000 -33.785194
v 2.502262 0.000000 -33.785194
v 2.502262 0.000000 -34.503963
v 45.942261 0.000000 -34.503963
v 45.942261 0.000000 -33.785194
v 3.221169 0.000000 -33.785194
v 45.941818 0.000000 -35.753963
v 45.941826 0.000000 -34.503963
v 2.502296 0.000000 -70.055321
v 2.502296 0.000000 -69.336548
v 45.942299 0.000000 -69.336548
v 45.942299 0.000000 -70.055321
v 2.502296 0.000000 -70.055321
v 2.502300 0.000000 -69.336548
v 2.502398 0.000000 -50.533180
v 2.502472 0.000000 -35.753963
v 2.502480 0.000000 -34.503963
v 2.502640 0.000000 -3.321899
v 2.502640 0.000000 -3.320293
v 2.502644 0.000000 -2.601522
v 2.502651 0.000000 -0.921804
v 3.221169 0.000000 -33.786613
v 3.221169 0.000000 -3.321899
v 2.502398 0.000000 -3.321899
v 2.502398 0.000000 -33.786613
v 3.221169 0.000000 -33.786613
v 2.502262 0.000000 -36.472736
v 2.502398 0.000000 -36.472736
v 3.221169 0.000000 -36.472736
v 45.942261 0.000000 -36.472736
v 45.223488 0.000000 -36.472736
v 45.223488 0.000000 -69.336441
v 45.942261 0.000000 -69.336441
v 45.942261 0.000000 -36.472736
v 45.942261 0.000000 -35.753963
v 2.502262 0.000000 -35.753963
v 2.502262 0.000000 -36.472736
v 45.942398 0.000000 -70.055321
v 45.942398 0.000000 -3.320293
v 45.942398 0.000000 -2.601522
v 45.942398 0.000000 -0.921804
v 46.034164 0.000000 -0.921822
v 46.034164 0.000000 -70.055321
v 45.942398 0.000000 -3.320293
v 2.502398 0.000000 -3.320293
v 2.502398 0.000000 -2.601522
v 45.942398 0.000000 -2.601522
v 45.942398 0.000000 -2.601522
v 45.942402 0.000000 -1.640804
v 48.222397 0.000000 -71.024323
v 48.222397 0.000000 -70.055321
v 0.222397 0.000000 -70.055321
v 0.222397 0.000000 -71.024323
v 48.222397 0.000000 -71.024323
v 3.221169 0.000000 -69.337692
v 3.221169 0.000000 -36.470688
v 2.502398 0.000000 -36.470688
v 2.502398 0.000000 -69.337692
v 3.221169 0.000000 -69.337692
v 2.502262 0.000000 -34.503963
v 2.502262 0.000000 -35.753963
v 45.942261 0.000000 -33.785194
v 45.223488 0.000000 -33.785194
v 45.223488 0.000000 -3.320293
v 45.223488 0.000000 -3.320051
v 45.942261 0.000000 -3.320051
v 45.942261 0.000000 -3.320293
v 45.942261 0.000000 -33.785194
v 2.502398 0.000000 -2.601522
v 2.502398 0.000000 -1.640804
v 2.502647 0.000000 -1.640804
v 2.502710 0.000000 -1.640804
v 2.408398 0.000000 -0.921804
v 2.410631 0.000000 -70.055321
v 46.034164 0.000000 -0.921822
v 46.098396 0.000000 -0.921822
l 1 2
l 2 3
l 3 4
l 4 5
l 5 6
l 6 7
l 7 8
l 8 9
l 9 10
l 10 11
l 11 12
l 12 13
l 13 1
l 14 15
l 15 16
l 16 17
l 17 18
l 18 19
l 19 20
l 21 22
l 22 23
l 23 24
l 24 25
l 25 26
l 26 27
l 27 21
l 28 29
l 30 31
l 31 32
l 32 33
l 33 34
l 34 35
l 35 36
l 36 37
l 37 38
l 38 39
l 39 40
l 40 41
l 41 42
l 43 44
l 44 45
l 45 46
l 46 47
l 47 43
l 48 49
l 49 50
l 50 51
l 51 52
l 52 53
l 53 54
l 54 55
l 55 56
l 56 57
l 57 58
l 58 48
l 59 60
l 60 61
l 61 62
l 62 63
l 63 64
l 65 66
l 66 67
l 67 68
l 68 69
l 69 70
l 71 72
l 72 73
l 73 74
l 74 75
l 75 71
l 76 77
l 77 78
l 78 79
l 79 80
l 80 76
l 81 82
l 83 84
l 84 85
l 85 86
l 86 87
l 87 88
l 88 89
l 89 83
l 90 91
l 91 92
l 92 93
l 94 95
l 96 97
o Cube
v 1.000000 -1.000000 -1.000000
v 1.000000 -1.000000 1.000000
v -1.000000 -1.000000 1.000000
v -1.000000 -1.000000 -1.000000
v 1.000000 1.000000 -0.999999
v 0.999999 1.000000 1.000001
v -1.000000 1.000000 1.000000
v -1.000000 1.000000 -1.000000
vn 0.0000 -1.0000 0.0000
vn 0.0000 1.0000 0.0000
vn 1.0000 0.0000 0.0000
vn -0.0000 -0.0000 1.0000
vn -1.0000 -0.0000 -0.0000
vn 0.0000 0.0000 -1.0000
usemtl Material
s off
f 98//1 99//1 100//1 101//1
f 102//2 105//2 104//2 103//2
f 98//3 102//3 103//3 99//3
f 99//4 103//4 104//4 100//4
f 100//5 104//5 105//5 101//5
f 102//6 98//6 101//6 105//6
