# 3ds Max Wavefront OBJ Exporter v0.97b - (c)2007 guruware
# File Created: 18.10.2017 19:47:03

#
# object Layer_Frame_Right_1_ESEL104
#

v  24.000000000000 34.566757202148 -0.999669075012
v  21.875999450684 34.566757202148 -0.999669075012
v  21.875999450684 34.566757202148 1.000330924988
v  24.000000000000 34.566757202148 1.000330924988
v  24.000000000000 -34.566757202148 -0.999669075012
v  24.000000000000 -34.566757202148 1.000330924988
v  21.875999450684 -34.566757202148 -0.999669075012
v  21.875999450684 -34.566757202148 1.000330924988
# 8 vertices

vn 0.577350258827 0.577350258827 -0.577350258827
vn -0.577350258827 0.577350258827 -0.577350258827
vn -0.577350258827 0.577350258827 0.577350258827
vn 0.577350258827 0.577350258827 0.577350258827
vn 0.577350258827 -0.577350258827 -0.577350258827
vn 0.577350258827 -0.577350258827 0.577350258827
vn -0.577350258827 -0.577350258827 -0.577350258827
vn -0.577350258827 -0.577350258827 0.577350258827
# 8 vertex normals

o Layer_Frame_Right_1_ESEL104
g Layer_Frame_Right_1_ESEL104
s 1
f 1//1 2//2 3//3 4//4 
s 2
f 5//5 1//1 4//4 6//6 
s 1
f 7//7 5//5 6//6 8//8 
s 2
f 2//2 7//7 8//8 3//3 
s 4
f 2//2 1//1 5//5 7//7 
f 8//8 6//6 4//4 3//3 
# 6 polygons

#
# object Layer_Frame_Left_1_ESEL104
#

v  -21.875999450684 -34.566757202148 -0.999669075012
v  -21.875999450684 34.566757202148 -0.999669075012
v  -21.875999450684 34.566757202148 1.000330924988
v  -21.875999450684 -34.566757202148 1.000330924988
v  -24.000000000000 -34.566757202148 -0.999669075012
v  -24.000000000000 -34.566757202148 1.000330924988
v  -24.000000000000 34.566757202148 -0.999669075012
v  -24.000000000000 34.566757202148 1.000330924988
# 8 vertices

vn 0.577350258827 -0.577350258827 -0.577350258827
vn 0.577350258827 0.577350258827 -0.577350258827
vn 0.577350258827 0.577350258827 0.577350258827
vn 0.577350258827 -0.577350258827 0.577350258827
vn -0.577350258827 -0.577350258827 -0.577350258827
vn -0.577350258827 -0.577350258827 0.577350258827
vn -0.577350258827 0.577350258827 -0.577350258827
vn -0.577350258827 0.577350258827 0.577350258827
# 8 vertex normals

o Layer_Frame_Left_1_ESEL104
g Layer_Frame_Left_1_ESEL104
s 1
f 9//9 10//10 11//11 12//12 
s 2
f 13//13 9//9 12//12 14//14 
s 1
f 15//15 13//13 14//14 16//16 
s 2
f 10//10 15//15 16//16 11//11 
s 4
f 11//11 16//16 14//14 12//12 
f 15//15 10//10 9//9 13//13 
# 6 polygons

#
# object Layer_Frame_Bottom_1_ESEL102
#

v  24.000000000000 -35.535758972168 -0.999669075012
v  24.000000000000 -34.566757202148 -0.999669075012
v  24.000000000000 -34.566757202148 1.000330924988
v  24.000000000000 -35.535758972168 1.000330924988
v  -24.000000000000 -35.535758972168 -0.999669075012
v  -24.000000000000 -35.535758972168 1.000330924988
v  -24.000000000000 -34.566757202148 -0.999669075012
v  -24.000000000000 -34.566757202148 1.000330924988
# 8 vertices

vn 0.577350258827 -0.577350258827 -0.577350258827
vn 0.577350258827 0.577350258827 -0.577350258827
vn 0.577350258827 0.577350258827 0.577350258827
vn 0.577350258827 -0.577350258827 0.577350258827
vn -0.577350258827 -0.577350258827 -0.577350258827
vn -0.577350258827 -0.577350258827 0.577350258827
vn -0.577350258827 0.577350258827 -0.577350258827
vn -0.577350258827 0.577350258827 0.577350258827
# 8 vertex normals

o Layer_Frame_Bottom_1_ESEL102
g Layer_Frame_Bottom_1_ESEL102
s 1
f 17//17 18//18 19//19 20//20 
s 2
f 21//21 17//17 20//20 22//22 
s 1
f 23//23 21//21 22//22 24//24 
s 2
f 18//18 23//23 24//24 19//19 
s 4
f 23//23 18//18 17//17 21//21 
f 19//19 24//24 22//22 20//20 
# 6 polygons

#
# object Layer_Panel_A_Top_1_ESEL110
#

v  21.719902038574 33.847988128662 -0.999669075012
v  21.719902038574 34.566757202148 -0.999669075012
v  21.719902038574 34.566757202148 1.000330924988
v  21.719902038574 33.847988128662 1.000330924988
v  -21.720100402832 33.847988128662 -0.999669075012
v  -21.720100402832 33.847988128662 1.000330924988
v  -21.720100402832 34.566757202148 -0.999669075012
v  -21.720100402832 34.566757202148 1.000330924988
# 8 vertices

vn 0.577350258827 -0.577350258827 -0.577350258827
vn 0.577350258827 0.577350258827 -0.577350258827
vn 0.577350258827 0.577350258827 0.577350258827
vn 0.577350258827 -0.577350258827 0.577350258827
vn -0.577350258827 -0.577350258827 -0.577350258827
vn -0.577350258827 -0.577350258827 0.577350258827
vn -0.577350258827 0.577350258827 -0.577350258827
vn -0.577350258827 0.577350258827 0.577350258827
# 8 vertex normals

o Layer_Panel_A_Top_1_ESEL110
g Layer_Panel_A_Top_1_ESEL110
s 1
f 25//25 26//26 27//27 28//28 
s 2
f 29//29 25//25 28//28 30//30 
s 1
f 31//31 29//29 30//30 32//32 
s 2
f 26//26 31//31 32//32 27//27 
s 4
f 27//27 32//32 30//30 28//28 
f 31//31 26//26 25//25 29//29 
# 6 polygons

#
# object Layer_Frame_Bottom_2_ESEL106
#

v  -21.719684600830 -33.847759246826 -0.999669075012
v  -21.719802856445 -34.566757202148 -0.999669075012
v  -21.719802856445 -34.566757202148 0.500330924988
v  -21.719684600830 -33.847759246826 0.500330924988
v  21.720127105713 -33.847759246826 -0.999669075012
v  21.720127105713 -33.847759246826 0.500330924988
v  21.719875335693 -34.566757202148 -0.999669075012
v  21.719875335693 -34.566757202148 0.500330924988
v  21.720005035400 -33.847759246826 -0.999669075012
v  21.720001220703 -32.887039184570 -0.999669075012
v  21.720001220703 -32.887039184570 0.400330901146
v  21.720005035400 -33.847759246826 0.400330901146
v  -21.719997406006 -33.847759246826 -0.999669075012
v  -21.719997406006 -33.847759246826 0.400330901146
v  -21.719997406006 -32.887039184570 -0.999669075012
v  -21.719997406006 -32.887039184570 0.400330901146
# 16 vertices

vn -0.577318608761 0.577413558960 -0.577318608761
vn -0.577381908894 -0.577286958694 -0.577381908894
vn -0.577381908894 -0.577286958694 0.577381908894
vn -0.577318608761 0.577413558960 0.577318608761
vn 0.577459931374 0.577257812023 -0.577333033085
vn 0.577459931374 0.577257812023 0.577333033085
vn 0.577240526676 -0.577442705631 -0.577367484570
vn 0.577240526676 -0.577442705631 0.577367484570
vn 0.577351033688 -0.577348768711 -0.577351033688
vn 0.577349483967 0.577351808548 -0.577349483967
vn 0.577349483967 0.577351808548 0.577349483967
vn 0.577351033688 -0.577348768711 0.577351033688
vn -0.577350258827 -0.577350258827 -0.577350258827
vn -0.577350258827 -0.577350258827 0.577350258827
vn -0.577350258827 0.577350258827 -0.577350258827
vn -0.577350258827 0.577350258827 0.577350258827
# 16 vertex normals

o Layer_Frame_Bottom_2_ESEL106
g Layer_Frame_Bottom_2_ESEL106
s 1
f 33//33 34//34 35//35 36//36 
s 2
f 37//37 33//33 36//36 38//38 
s 1
f 39//39 37//37 38//38 40//40 
s 2
f 34//34 39//39 40//40 35//35 
s 4
f 34//34 33//33 37//37 39//39 
f 35//35 40//40 38//38 36//36 
s 1
f 41//41 42//42 43//43 44//44 
s 2
f 45//45 41//41 44//44 46//46 
s 1
f 47//47 45//45 46//46 48//48 
s 2
f 42//42 47//47 48//48 43//43 
s 4
f 48//48 46//46 44//44 43//43 
f 47//47 42//42 41//41 45//45 
# 12 polygons

#
# object Layer_Panel_B_Top_1_ESEL108A
#

v  21.719425201416 -0.984597206116 -1.000330924988
v  21.719421386719 0.265402793884 -1.000330924988
v  21.719421386719 0.265402793884 0.299669086933
v  21.719425201416 -0.984597206116 0.299669086933
v  -21.720134735107 -0.984597206116 -1.000330924988
v  -21.720134735107 -0.984597206116 0.299669086933
v  -21.720134735107 0.265402793884 -1.000330924988
v  -21.720134735107 0.265402793884 0.299669086933
# 8 vertices

vn 0.577350854874 -0.577349126339 -0.577350854874
vn 0.577349662781 0.577351450920 -0.577349662781
vn 0.577349662781 0.577351450920 0.577349662781
vn 0.577350854874 -0.577349126339 0.577350854874
vn -0.577350258827 -0.577350258827 -0.577350258827
vn -0.577350258827 -0.577350258827 0.577350258827
vn -0.577350258827 0.577350258827 -0.577350258827
vn -0.577350258827 0.577350258827 0.577350258827
# 8 vertex normals

o Layer_Panel_B_Top_1_ESEL108A
g Layer_Panel_B_Top_1_ESEL108A
s 1
f 49//49 50//50 51//51 52//52 
s 2
f 53//53 49//49 52//52 54//54 
s 1
f 55//55 53//53 54//54 56//56 
s 2
f 50//50 55//55 56//56 51//51 
s 4
f 56//56 54//54 52//52 51//51 
f 55//55 50//50 49//49 53//53 
# 6 polygons

#
# object Layer_Frame_Right_2
#

v  21.876068115234 -34.566757202148 -0.999007165432
v  21.876068115234 34.566757202148 -0.999007165432
v  21.876068115234 34.566757202148 0.500992894173
v  21.876068115234 -34.566757202148 0.500992894173
v  21.719873428345 -34.566757202148 -0.999007165432
v  21.719873428345 -34.566757202148 0.500992894173
v  21.719873428345 34.566757202148 -0.999007165432
v  21.719873428345 34.566757202148 0.500992894173
# 8 vertices

vn 0.577350258827 -0.577350258827 -0.577350258827
vn 0.577350258827 0.577350258827 -0.577350258827
vn 0.577350258827 0.577350258827 0.577350258827
vn 0.577350258827 -0.577350258827 0.577350258827
vn -0.577350258827 -0.577350258827 -0.577350258827
vn -0.577350258827 -0.577350258827 0.577350258827
vn -0.577350258827 0.577350258827 -0.577350258827
vn -0.577350258827 0.577350258827 0.577350258827
# 8 vertex normals

o Layer_Frame_Right_2
g Layer_Frame_Right_2
s 1
f 57//57 58//58 59//59 60//60 
s 2
f 61//61 57//57 60//60 62//62 
s 1
f 63//63 61//61 62//62 64//64 
s 2
f 58//58 63//63 64//64 59//59 
s 4
f 63//63 58//58 57//57 61//61 
f 59//59 64//64 62//62 60//60 
# 6 polygons

#
# object Layer_Panel_A_Bottom_2_ESEL110
#

v  21.719867706299 0.265402793884 -1.000330924988
v  21.719867706299 0.984174609184 -1.000330924988
v  21.719867706299 0.984174609184 0.999668955803
v  21.719867706299 0.265402793884 0.999668955803
v  -21.720134735107 0.265402793884 -1.000330924988
v  -21.720134735107 0.265402793884 0.999668955803
v  -21.720134735107 0.984174609184 -1.000330924988
v  -21.720134735107 0.984174609184 0.999668955803
# 8 vertices

vn 0.577350258827 -0.577350258827 -0.577350258827
vn 0.577350258827 0.577350258827 -0.577350258827
vn 0.577350258827 0.577350258827 0.577350258827
vn 0.577350258827 -0.577350258827 0.577350258827
vn -0.577350258827 -0.577350258827 -0.577350258827
vn -0.577350258827 -0.577350258827 0.577350258827
vn -0.577350258827 0.577350258827 -0.577350258827
vn -0.577350258827 0.577350258827 0.577350258827
# 8 vertex normals

o Layer_Panel_A_Bottom_2_ESEL110
g Layer_Panel_A_Bottom_2_ESEL110
s 1
f 65//65 66//66 67//67 68//68 
s 2
f 69//69 65//65 68//68 70//70 
s 1
f 71//71 69//69 70//70 72//72 
s 2
f 66//66 71//71 72//72 67//67 
s 4
f 67//67 72//72 70//70 68//68 
f 71//71 66//66 65//65 69//69 
# 6 polygons

#
# object Layer_Panel_A_Left_1_ESEL110
#

v  -21.719999313354 0.982124328613 -0.999669075012
v  -21.001228332520 0.982124328613 -0.999669075012
v  -21.001228332520 0.982124328613 1.000330924988
v  -21.719999313354 0.982124328613 1.000330924988
v  -21.719999313354 33.849136352539 -0.999669075012
v  -21.719999313354 33.849136352539 1.000330924988
v  -21.001228332520 33.849136352539 -0.999669075012
v  -21.001228332520 33.849136352539 1.000330924988
# 8 vertices

vn -0.577350258827 -0.577350258827 -0.577350258827
vn 0.577350258827 -0.577350258827 -0.577350258827
vn 0.577350258827 -0.577350258827 0.577350258827
vn -0.577350258827 -0.577350258827 0.577350258827
vn -0.577350258827 0.577350258827 -0.577350258827
vn -0.577350258827 0.577350258827 0.577350258827
vn 0.577350258827 0.577350258827 -0.577350258827
vn 0.577350258827 0.577350258827 0.577350258827
# 8 vertex normals

o Layer_Panel_A_Left_1_ESEL110
g Layer_Panel_A_Left_1_ESEL110
s 1
f 73//73 74//74 75//75 76//76 
s 2
f 77//77 73//73 76//76 78//78 
s 1
f 79//79 77//77 78//78 80//80 
s 2
f 74//74 79//79 80//80 75//75 
s 4
f 75//75 80//80 78//78 76//76 
f 79//79 74//74 73//73 77//77 
# 6 polygons

#
# object Layer_Panel_A_Right_1_ESEL110
#

v  21.001092910767 0.984174728394 -1.000330924988
v  21.719865798950 0.984174728394 -1.000330924988
v  21.719865798950 0.984174728394 0.999668955803
v  21.001092910767 0.984174728394 0.999668955803
v  21.001092910767 33.847877502441 -1.000330924988
v  21.001092910767 33.847877502441 0.999668955803
v  21.719865798950 33.847877502441 -1.000330924988
v  21.719865798950 33.847877502441 0.999668955803
# 8 vertices

vn -0.577350258827 -0.577350258827 -0.577350258827
vn 0.577350258827 -0.577350258827 -0.577350258827
vn 0.577350258827 -0.577350258827 0.577350258827
vn -0.577350258827 -0.577350258827 0.577350258827
vn -0.577350258827 0.577350258827 -0.577350258827
vn -0.577350258827 0.577350258827 0.577350258827
vn 0.577350258827 0.577350258827 -0.577350258827
vn 0.577350258827 0.577350258827 0.577350258827
# 8 vertex normals

o Layer_Panel_A_Right_1_ESEL110
g Layer_Panel_A_Right_1_ESEL110
s 1
f 81//81 82//82 83//83 84//84 
s 2
f 85//85 81//81 84//84 86//86 
s 1
f 87//87 85//85 86//86 88//88 
s 2
f 82//82 87//87 88//88 83//83 
s 4
f 83//83 88//88 86//86 84//84 
f 87//87 82//82 81//81 85//85 
# 6 polygons

#
# object Layer_Panel_B_Top_2_ESEL110
#

v  21.719867706299 -1.703368782997 -1.000330924988
v  21.719867706299 -0.984597086906 -1.000330924988
v  21.719867706299 -0.984597086906 0.999668955803
v  21.719867706299 -1.703368782997 0.999668955803
v  -21.720134735107 -1.703368782997 -1.000330924988
v  -21.720134735107 -1.703368782997 0.999668955803
v  -21.720134735107 -0.984597086906 -1.000330924988
v  -21.720134735107 -0.984597086906 0.999668955803
# 8 vertices

vn 0.577350258827 -0.577350258827 -0.577350258827
vn 0.577350258827 0.577350258827 -0.577350258827
vn 0.577350258827 0.577350258827 0.577350258827
vn 0.577350258827 -0.577350258827 0.577350258827
vn -0.577350258827 -0.577350258827 -0.577350258827
vn -0.577350258827 -0.577350258827 0.577350258827
vn -0.577350258827 0.577350258827 -0.577350258827
vn -0.577350258827 0.577350258827 0.577350258827
# 8 vertex normals

o Layer_Panel_B_Top_2_ESEL110
g Layer_Panel_B_Top_2_ESEL110
s 1
f 89//89 90//90 91//91 92//92 
s 2
f 93//93 89//89 92//92 94//94 
s 1
f 95//95 93//93 94//94 96//96 
s 2
f 90//90 95//95 96//96 91//91 
s 4
f 91//91 96//96 94//94 92//92 
f 95//95 90//90 89//89 93//93 
# 6 polygons

#
# object Layer_Panel_B_Right_1_ESEL110
#

v  21.001092910767 -32.168510437012 -1.000330924988
v  21.719865798950 -32.168510437012 -1.000330924988
v  21.719865798950 -32.168510437012 0.999668955803
v  21.001092910767 -32.168510437012 0.999668955803
v  21.001092910767 -1.703369140625 -1.000330924988
v  21.001092910767 -1.703369140625 0.999668955803
v  21.719865798950 -1.703369140625 -1.000330924988
v  21.719865798950 -1.703369140625 0.999668955803
# 8 vertices

vn -0.577350258827 -0.577350258827 -0.577350258827
vn 0.577350258827 -0.577350258827 -0.577350258827
vn 0.577350258827 -0.577350258827 0.577350258827
vn -0.577350258827 -0.577350258827 0.577350258827
vn -0.577350258827 0.577350258827 -0.577350258827
vn -0.577350258827 0.577350258827 0.577350258827
vn 0.577350258827 0.577350258827 -0.577350258827
vn 0.577350258827 0.577350258827 0.577350258827
# 8 vertex normals

o Layer_Panel_B_Right_1_ESEL110
g Layer_Panel_B_Right_1_ESEL110
s 1
f 97//97 98//98 99//99 100//100 
s 2
f 101//101 97//97 100//100 102//102 
s 1
f 103//103 101//101 102//102 104//104 
s 2
f 98//98 103//103 104//104 99//99 
s 4
f 99//99 104//104 102//102 100//100 
f 103//103 98//98 97//97 101//101 
# 6 polygons

#
# object Layer_Panel_B_Left_1_ESEL110
#

v  -21.719999313354 -32.166664123535 -0.999669075012
v  -21.001228332520 -32.166664123535 -0.999669075012
v  -21.001228332520 -32.166664123535 1.000330924988
v  -21.719999313354 -32.166664123535 1.000330924988
v  -21.719999313354 -1.701946258545 -0.999669075012
v  -21.719999313354 -1.701946258545 1.000330924988
v  -21.001228332520 -1.701946258545 -0.999669075012
v  -21.001228332520 -1.701946258545 1.000330924988
# 8 vertices

vn -0.577350258827 -0.577350258827 -0.577350258827
vn 0.577350258827 -0.577350258827 -0.577350258827
vn 0.577350258827 -0.577350258827 0.577350258827
vn -0.577350258827 -0.577350258827 0.577350258827
vn -0.577350258827 0.577350258827 -0.577350258827
vn -0.577350258827 0.577350258827 0.577350258827
vn 0.577350258827 0.577350258827 -0.577350258827
vn 0.577350258827 0.577350258827 0.577350258827
# 8 vertex normals

o Layer_Panel_B_Left_1_ESEL110
g Layer_Panel_B_Left_1_ESEL110
s 1
f 105//105 106//106 107//107 108//108 
s 2
f 109//109 105//105 108//108 110//110 
s 1
f 111//111 109//109 110//110 112//112 
s 2
f 106//106 111//111 112//112 107//107 
s 4
f 107//107 112//112 110//110 108//108 
f 111//111 106//106 105//105 109//109 
# 6 polygons

#
# object Layer_Panel_B_Bottom_1_ESEL110
#

v  21.719999313354 -32.887039184570 -0.999669075012
v  21.719999313354 -32.168270111084 -0.999669075012
v  21.719999313354 -32.168270111084 1.000330924988
v  21.719999313354 -32.887039184570 1.000330924988
v  -21.719999313354 -32.887039184570 -0.999669075012
v  -21.719999313354 -32.887039184570 1.000330924988
v  -21.719999313354 -32.168270111084 -0.999669075012
v  -21.719999313354 -32.168270111084 1.000330924988
# 8 vertices

vn 0.577350258827 -0.577350258827 -0.577350258827
vn 0.577350258827 0.577350258827 -0.577350258827
vn 0.577350258827 0.577350258827 0.577350258827
vn 0.577350258827 -0.577350258827 0.577350258827
vn -0.577350258827 -0.577350258827 -0.577350258827
vn -0.577350258827 -0.577350258827 0.577350258827
vn -0.577350258827 0.577350258827 -0.577350258827
vn -0.577350258827 0.577350258827 0.577350258827
# 8 vertex normals

o Layer_Panel_B_Bottom_1_ESEL110
g Layer_Panel_B_Bottom_1_ESEL110
s 1
f 113//113 114//114 115//115 116//116 
s 2
f 117//117 113//113 116//116 118//118 
s 1
f 119//119 117//117 118//118 120//120 
s 2
f 114//114 119//119 120//120 115//115 
s 4
f 115//115 120//120 118//118 116//116 
f 119//119 114//114 113//113 117//117 
# 6 polygons

#
# object Layer_Frame_Left_2
#

v  -21.719802856445 -34.566757202148 -0.999669075012
v  -21.719802856445 34.566757202148 -0.999669075012
v  -21.719802856445 34.566757202148 0.500330924988
v  -21.719802856445 -34.566757202148 0.500330924988
v  -21.875999450684 -34.566757202148 -0.999669075012
v  -21.875999450684 -34.566757202148 0.500330924988
v  -21.875999450684 34.566757202148 -0.999669075012
v  -21.875999450684 34.566757202148 0.500330924988
# 8 vertices

vn 0.577350258827 -0.577350258827 -0.577350258827
vn 0.577350258827 0.577350258827 -0.577350258827
vn 0.577350258827 0.577350258827 0.577350258827
vn 0.577350258827 -0.577350258827 0.577350258827
vn -0.577350258827 -0.577350258827 -0.577350258827
vn -0.577350258827 -0.577350258827 0.577350258827
vn -0.577350258827 0.577350258827 -0.577350258827
vn -0.577350258827 0.577350258827 0.577350258827
# 8 vertex normals

o Layer_Frame_Left_2
g Layer_Frame_Left_2
s 1
f 121//121 122//122 123//123 124//124 
s 2
f 125//125 121//121 124//124 126//126 
s 1
f 127//127 125//125 126//126 128//128 
s 2
f 122//122 127//127 128//128 123//123 
s 4
f 127//127 122//122 121//121 125//125 
f 123//123 128//128 126//126 124//124 
# 6 polygons

#
# object Layer_Frame_Top_1_ESEL101A
#

v  24.000000000000 34.566757202148 -0.999669075012
v  24.000000000000 35.535758972168 -0.999669075012
v  24.000000000000 35.535758972168 1.000330924988
v  24.000000000000 34.566757202148 1.000330924988
v  -24.000000000000 34.566757202148 -0.999669075012
v  -24.000000000000 34.566757202148 1.000330924988
v  -24.000000000000 35.535758972168 -0.999669075012
v  -24.000000000000 35.535758972168 1.000330924988
# 8 vertices

vn 0.577350258827 -0.577350258827 -0.577350258827
vn 0.577350258827 0.577350258827 -0.577350258827
vn 0.577350258827 0.577350258827 0.577350258827
vn 0.577350258827 -0.577350258827 0.577350258827
vn -0.577350258827 -0.577350258827 -0.577350258827
vn -0.577350258827 -0.577350258827 0.577350258827
vn -0.577350258827 0.577350258827 -0.577350258827
vn -0.577350258827 0.577350258827 0.577350258827
# 8 vertex normals

o Layer_Frame_Top_1_ESEL101A
g Layer_Frame_Top_1_ESEL101A
s 1
f 129//129 130//130 131//131 132//132 
s 2
f 133//133 129//129 132//132 134//134 
s 1
f 135//135 133//133 134//134 136//136 
s 2
f 130//130 135//135 136//136 131//131 
s 4
f 135//135 130//130 129//129 133//133 
f 131//131 136//136 134//134 132//132 
# 6 polygons

